<svg width="125" height="71" viewBox="0 0 125 71" fill="none" xmlns="http://www.w3.org/2000/svg">
<path d="M2.928 57V18.12H11.52V57H2.928ZM17.1735 57L17.8455 18.12H27.0615L31.3335 40.728L35.9415 18.12H44.8215L45.4935 57H39.3975L38.6775 31.128L34.1655 57H28.7415L23.9415 30.936L23.3655 57H17.1735ZM51.1144 57V18.12H61.8184C64.4424 18.12 66.7144 18.408 68.6344 18.984C70.5544 19.56 72.0424 20.6 73.0984 22.104C74.1864 23.576 74.7304 25.672 74.7304 28.392C74.7304 29.992 74.6024 31.416 74.3464 32.664C74.0904 33.912 73.6104 35 72.9064 35.928C72.2344 36.824 71.2584 37.576 69.9784 38.184L75.3064 57H66.4264L62.1544 39.576H59.7064V57H51.1144ZM59.7064 34.632H62.1064C63.3224 34.632 64.2664 34.424 64.9384 34.008C65.6104 33.56 66.0744 32.936 66.3304 32.136C66.6184 31.304 66.7624 30.312 66.7624 29.16C66.7624 27.496 66.4584 26.2 65.8504 25.272C65.2424 24.344 64.1224 23.88 62.4904 23.88H59.7064V34.632ZM78.4076 57V51.816L87.9116 23.928H78.8396V18.12H96.3596V22.968L86.7116 51.192H96.4556V57H78.4076ZM100.661 57V18.12H106.709L114.677 36.84V18.12H121.781V57H115.973L108.005 36.84V57H100.661Z" fill="#D9D9D9"/>
</svg>
